<?xml version="1.0" encoding="UTF-8" standalone="no"?>
<!DOCTYPE svg PUBLIC "-//W3C//DTD SVG 1.1//EN"
 "http://www.w3.org/Graphics/SVG/1.1/DTD/svg11.dtd">
<!-- Generated by graphviz version 2.36.0 (20140111.2315)
 -->
<!-- Title: Records Pages: 1 -->
<svg width="1850pt" height="308pt"
 viewBox="0.00 0.00 1850.00 308.00" xmlns="http://www.w3.org/2000/svg" xmlns:xlink="http://www.w3.org/1999/xlink">
<g id="graph0" class="graph" transform="scale(1 1) rotate(0) translate(4 304)">
<title>Records</title>
<polygon fill="white" stroke="none" points="-4,4 -4,-304 1846,-304 1846,4 -4,4"/>
<!-- Mapping -->
<g id="node1" class="node"><title>Mapping</title>
<polygon fill="none" stroke="black" points="702.5,-253 702.5,-299 845.5,-299 845.5,-253 702.5,-253"/>
<text text-anchor="middle" x="774" y="-283.8" font-family="Source Code Pro" font-size="14.00">Mapping</text>
<polyline fill="none" stroke="black" points="702.5,-276 845.5,-276 "/>
<text text-anchor="middle" x="774" y="-260.8" font-family="Source Code Pro" font-size="14.00">collections.abc</text>
</g>
<!-- Hashable -->
<g id="node2" class="node"><title>Hashable</title>
<polygon fill="none" stroke="black" points="515.5,-253 515.5,-299 658.5,-299 658.5,-253 515.5,-253"/>
<text text-anchor="middle" x="587" y="-283.8" font-family="Source Code Pro" font-size="14.00">Hashable</text>
<polyline fill="none" stroke="black" points="515.5,-276 658.5,-276 "/>
<text text-anchor="middle" x="587" y="-260.8" font-family="Source Code Pro" font-size="14.00">collections.abc</text>
</g>
<!-- ABCMeta -->
<g id="node3" class="node"><title>ABCMeta</title>
<polygon fill="none" stroke="black" stroke-dasharray="5,2" points="617.5,-169 617.5,-215 692.5,-215 692.5,-169 617.5,-169"/>
<text text-anchor="middle" x="655" y="-199.8" font-family="Source Code Pro" font-size="14.00">ABCMeta</text>
<polyline fill="none" stroke="black" stroke-dasharray="5,2" points="617.5,-192 692.5,-192 "/>
<text text-anchor="middle" x="655" y="-176.8" font-family="Source Code Pro" font-size="14.00">abc</text>
</g>
<!-- MutableMapping -->
<g id="node4" class="node"><title>MutableMapping</title>
<polygon fill="none" stroke="black" points="1347.5,-169 1347.5,-215 1490.5,-215 1490.5,-169 1347.5,-169"/>
<text text-anchor="middle" x="1419" y="-199.8" font-family="Source Code Pro" font-size="14.00">MutableMapping</text>
<polyline fill="none" stroke="black" points="1347.5,-192 1490.5,-192 "/>
<text text-anchor="middle" x="1419" y="-176.8" font-family="Source Code Pro" font-size="14.00">collections.abc</text>
</g>
<!-- Record -->
<g id="node5" class="node"><title>Record</title>
<polygon fill="none" stroke="black" points="711,-169 711,-215 837,-215 837,-169 711,-169"/>
<text text-anchor="middle" x="774" y="-199.8" font-family="Source Code Pro" font-size="14.00">Record</text>
<polyline fill="none" stroke="black" points="711,-192 837,-192 "/>
<text text-anchor="middle" x="774" y="-176.8" font-family="Source Code Pro" font-size="14.00">metaknowledge</text>
</g>
<!-- Record&#45;&gt;Mapping -->
<g id="edge2" class="edge"><title>Record&#45;&gt;Mapping</title>
<path fill="none" stroke="black" d="M774,-215.407C774,-223.882 774,-233.703 774,-242.896"/>
<polygon fill="none" stroke="black" points="770.5,-242.904 774,-252.904 777.5,-242.904 770.5,-242.904"/>
</g>
<!-- Record&#45;&gt;Hashable -->
<g id="edge1" class="edge"><title>Record&#45;&gt;Hashable</title>
<path fill="none" stroke="black" d="M723.395,-215.19C699.705,-225.579 671.324,-238.024 646.6,-248.865"/>
<polygon fill="none" stroke="black" points="645.074,-245.713 637.321,-252.934 647.885,-252.123 645.074,-245.713"/>
</g>
<!-- ExtendedRecord -->
<g id="node6" class="node"><title>ExtendedRecord</title>
<polygon fill="none" stroke="black" points="647,-85 647,-131 781,-131 781,-85 647,-85"/>
<text text-anchor="middle" x="714" y="-115.8" font-family="Source Code Pro" font-size="14.00">ExtendedRecord</text>
<polyline fill="none" stroke="black" points="647,-108 781,-108 "/>
<text text-anchor="middle" x="714" y="-92.8" font-family="Source Code Pro" font-size="14.00">metaknowledge</text>
</g>
<!-- ExtendedRecord&#45;&gt;ABCMeta -->
<g id="edge12" class="edge"><title>ExtendedRecord&#45;&gt;ABCMeta</title>
<path fill="none" stroke="black" stroke-dasharray="5,2" d="M697.878,-131.407C691.386,-140.429 683.798,-150.975 676.825,-160.667"/>
<polygon fill="none" stroke="black" points="673.898,-158.743 670.898,-168.904 679.58,-162.831 673.898,-158.743"/>
</g>
<!-- ExtendedRecord&#45;&gt;Record -->
<g id="edge13" class="edge"><title>ExtendedRecord&#45;&gt;Record</title>
<path fill="none" stroke="black" d="M730.395,-131.407C736.997,-140.429 744.714,-150.975 751.805,-160.667"/>
<polygon fill="none" stroke="black" points="749.103,-162.901 757.832,-168.904 754.752,-158.767 749.103,-162.901"/>
</g>
<!-- Grant -->
<g id="node7" class="node"><title>Grant</title>
<polygon fill="none" stroke="black" points="1356,-85 1356,-131 1482,-131 1482,-85 1356,-85"/>
<text text-anchor="middle" x="1419" y="-115.8" font-family="Source Code Pro" font-size="14.00">Grant</text>
<polyline fill="none" stroke="black" points="1356,-108 1482,-108 "/>
<text text-anchor="middle" x="1419" y="-92.8" font-family="Source Code Pro" font-size="14.00">metaknowledge</text>
</g>
<!-- Grant&#45;&gt;MutableMapping -->
<g id="edge6" class="edge"><title>Grant&#45;&gt;MutableMapping</title>
<path fill="none" stroke="black" d="M1419,-131.407C1419,-139.882 1419,-149.703 1419,-158.896"/>
<polygon fill="none" stroke="black" points="1415.5,-158.904 1419,-168.904 1422.5,-158.904 1415.5,-158.904"/>
</g>
<!-- Grant&#45;&gt;Record -->
<g id="edge5" class="edge"><title>Grant&#45;&gt;Record</title>
<path fill="none" stroke="black" d="M1355.98,-117.012C1235.92,-132.275 975.024,-165.443 847.35,-181.675"/>
<polygon fill="none" stroke="black" points="846.754,-178.222 837.276,-182.956 847.637,-185.166 846.754,-178.222"/>
</g>
<!-- DefaultGrant -->
<g id="node8" class="node"><title>DefaultGrant</title>
<polygon fill="none" stroke="black" points="1140,-1 1140,-47 1266,-47 1266,-1 1140,-1"/>
<text text-anchor="middle" x="1203" y="-31.8" font-family="Source Code Pro" font-size="14.00">DefaultGrant</text>
<polyline fill="none" stroke="black" points="1140,-24 1266,-24 "/>
<text text-anchor="middle" x="1203" y="-8.8" font-family="Source Code Pro" font-size="14.00">metaknowledge</text>
</g>
<!-- DefaultGrant&#45;&gt;Grant -->
<g id="edge7" class="edge"><title>DefaultGrant&#45;&gt;Grant</title>
<path fill="none" stroke="black" d="M1261.17,-47.0824C1288.9,-57.6091 1322.24,-70.2667 1351.12,-81.2305"/>
<polygon fill="none" stroke="black" points="1350.14,-84.6011 1360.73,-84.8782 1352.62,-78.0568 1350.14,-84.6011"/>
</g>
<!-- CIHRGrant -->
<g id="node9" class="node"><title>CIHRGrant</title>
<polygon fill="none" stroke="black" points="1284,-1 1284,-47 1410,-47 1410,-1 1284,-1"/>
<text text-anchor="middle" x="1347" y="-31.8" font-family="Source Code Pro" font-size="14.00">CIHRGrant</text>
<polyline fill="none" stroke="black" points="1284,-24 1410,-24 "/>
<text text-anchor="middle" x="1347" y="-8.8" font-family="Source Code Pro" font-size="14.00">metaknowledge</text>
</g>
<!-- CIHRGrant&#45;&gt;Grant -->
<g id="edge8" class="edge"><title>CIHRGrant&#45;&gt;Grant</title>
<path fill="none" stroke="black" d="M1366.67,-47.4069C1374.76,-56.6114 1384.23,-67.4021 1392.88,-77.2533"/>
<polygon fill="none" stroke="black" points="1390.37,-79.699 1399.6,-84.9041 1395.63,-75.0804 1390.37,-79.699"/>
</g>
<!-- MedlineGrant -->
<g id="node10" class="node"><title>MedlineGrant</title>
<polygon fill="none" stroke="black" points="1428,-1 1428,-47 1554,-47 1554,-1 1428,-1"/>
<text text-anchor="middle" x="1491" y="-31.8" font-family="Source Code Pro" font-size="14.00">MedlineGrant</text>
<polyline fill="none" stroke="black" points="1428,-24 1554,-24 "/>
<text text-anchor="middle" x="1491" y="-8.8" font-family="Source Code Pro" font-size="14.00">metaknowledge</text>
</g>
<!-- MedlineGrant&#45;&gt;Grant -->
<g id="edge9" class="edge"><title>MedlineGrant&#45;&gt;Grant</title>
<path fill="none" stroke="black" d="M1471.33,-47.4069C1463.24,-56.6114 1453.77,-67.4021 1445.12,-77.2533"/>
<polygon fill="none" stroke="black" points="1442.37,-75.0804 1438.4,-84.9041 1447.63,-79.699 1442.37,-75.0804"/>
</g>
<!-- NSERCGrant -->
<g id="node11" class="node"><title>NSERCGrant</title>
<polygon fill="none" stroke="black" points="1572,-1 1572,-47 1698,-47 1698,-1 1572,-1"/>
<text text-anchor="middle" x="1635" y="-31.8" font-family="Source Code Pro" font-size="14.00">NSERCGrant</text>
<polyline fill="none" stroke="black" points="1572,-24 1698,-24 "/>
<text text-anchor="middle" x="1635" y="-8.8" font-family="Source Code Pro" font-size="14.00">metaknowledge</text>
</g>
<!-- NSERCGrant&#45;&gt;Grant -->
<g id="edge10" class="edge"><title>NSERCGrant&#45;&gt;Grant</title>
<path fill="none" stroke="black" d="M1576.83,-47.0824C1549.1,-57.6091 1515.76,-70.2667 1486.88,-81.2305"/>
<polygon fill="none" stroke="black" points="1485.38,-78.0568 1477.27,-84.8782 1487.86,-84.6011 1485.38,-78.0568"/>
</g>
<!-- ScopusGrant -->
<g id="node12" class="node"><title>ScopusGrant</title>
<polygon fill="none" stroke="black" points="1716,-1 1716,-47 1842,-47 1842,-1 1716,-1"/>
<text text-anchor="middle" x="1779" y="-31.8" font-family="Source Code Pro" font-size="14.00">ScopusGrant</text>
<polyline fill="none" stroke="black" points="1716,-24 1842,-24 "/>
<text text-anchor="middle" x="1779" y="-8.8" font-family="Source Code Pro" font-size="14.00">metaknowledge</text>
</g>
<!-- ScopusGrant&#45;&gt;Grant -->
<g id="edge11" class="edge"><title>ScopusGrant&#45;&gt;Grant</title>
<path fill="none" stroke="black" d="M1715.9,-45.5798C1712.9,-46.4252 1709.92,-47.2368 1707,-48 1634.53,-66.94 1550.5,-83.5545 1491.98,-94.2852"/>
<polygon fill="none" stroke="black" points="1491.3,-90.8518 1482.09,-96.0878 1492.55,-97.7384 1491.3,-90.8518"/>
</g>
<!-- WOSRecord -->
<g id="node13" class="node"><title>WOSRecord</title>
<polygon fill="none" stroke="black" points="329.5,-1 329.5,-47 488.5,-47 488.5,-1 329.5,-1"/>
<text text-anchor="middle" x="409" y="-31.8" font-family="Source Code Pro" font-size="14.00">WOSRecord</text>
<polyline fill="none" stroke="black" points="329.5,-24 488.5,-24 "/>
<text text-anchor="middle" x="409" y="-8.8" font-family="Source Code Pro" font-size="14.00">metaknowledge.WOS</text>
</g>
<!-- WOSRecord&#45;&gt;ExtendedRecord -->
<g id="edge14" class="edge"><title>WOSRecord&#45;&gt;ExtendedRecord</title>
<path fill="none" stroke="black" d="M488.737,-46.4374C534.532,-58.7496 591.762,-74.136 637.077,-86.319"/>
<polygon fill="none" stroke="black" points="636.284,-89.7302 646.85,-88.9466 638.102,-82.9702 636.284,-89.7302"/>
</g>
<!-- ProQuestRecord -->
<g id="node14" class="node"><title>ProQuestRecord</title>
<polygon fill="none" stroke="black" points="506.5,-1 506.5,-47 707.5,-47 707.5,-1 506.5,-1"/>
<text text-anchor="middle" x="607" y="-31.8" font-family="Source Code Pro" font-size="14.00">ProQuestRecord</text>
<polyline fill="none" stroke="black" points="506.5,-24 707.5,-24 "/>
<text text-anchor="middle" x="607" y="-8.8" font-family="Source Code Pro" font-size="14.00">metaknowledge.proquest</text>
</g>
<!-- ProQuestRecord&#45;&gt;ExtendedRecord -->
<g id="edge15" class="edge"><title>ProQuestRecord&#45;&gt;ExtendedRecord</title>
<path fill="none" stroke="black" d="M635.956,-47.1904C648.564,-56.853 663.495,-68.295 676.903,-78.5708"/>
<polygon fill="none" stroke="black" points="674.955,-81.4871 685.021,-84.7919 679.213,-75.931 674.955,-81.4871"/>
</g>
<!-- MedlineRecord -->
<g id="node15" class="node"><title>MedlineRecord</title>
<polygon fill="none" stroke="black" points="725.5,-1 725.5,-47 918.5,-47 918.5,-1 725.5,-1"/>
<text text-anchor="middle" x="822" y="-31.8" font-family="Source Code Pro" font-size="14.00">MedlineRecord</text>
<polyline fill="none" stroke="black" points="725.5,-24 918.5,-24 "/>
<text text-anchor="middle" x="822" y="-8.8" font-family="Source Code Pro" font-size="14.00">metaknowledge.medline</text>
</g>
<!-- MedlineRecord&#45;&gt;ExtendedRecord -->
<g id="edge16" class="edge"><title>MedlineRecord&#45;&gt;ExtendedRecord</title>
<path fill="none" stroke="black" d="M792.774,-47.1904C780.047,-56.853 764.977,-68.295 751.443,-78.5708"/>
<polygon fill="none" stroke="black" points="749.098,-75.9572 743.25,-84.7919 753.331,-81.5323 749.098,-75.9572"/>
</g>
<!-- ScopusRecord -->
<g id="node16" class="node"><title>ScopusRecord</title>
<polygon fill="none" stroke="black" points="936.5,-1 936.5,-47 1121.5,-47 1121.5,-1 936.5,-1"/>
<text text-anchor="middle" x="1029" y="-31.8" font-family="Source Code Pro" font-size="14.00">ScopusRecord</text>
<polyline fill="none" stroke="black" points="936.5,-24 1121.5,-24 "/>
<text text-anchor="middle" x="1029" y="-8.8" font-family="Source Code Pro" font-size="14.00">metaknowledge.scopus</text>
</g>
<!-- ScopusRecord&#45;&gt;ExtendedRecord -->
<g id="edge17" class="edge"><title>ScopusRecord&#45;&gt;ExtendedRecord</title>
<path fill="none" stroke="black" d="M944.171,-47.0824C896.367,-59.5267 837.123,-74.949 790.712,-87.0305"/>
<polygon fill="none" stroke="black" points="789.808,-83.6492 781.012,-89.5556 791.571,-90.4234 789.808,-83.6492"/>
</g>
<!-- MutableSet -->
<g id="node17" class="node"><title>MutableSet</title>
<polygon fill="none" stroke="black" points="302.5,-253 302.5,-299 445.5,-299 445.5,-253 302.5,-253"/>
<text text-anchor="middle" x="374" y="-283.8" font-family="Source Code Pro" font-size="14.00">MutableSet</text>
<polyline fill="none" stroke="black" points="302.5,-276 445.5,-276 "/>
<text text-anchor="middle" x="374" y="-260.8" font-family="Source Code Pro" font-size="14.00">collections.abc</text>
</g>
<!-- Collection -->
<g id="node18" class="node"><title>Collection</title>
<polygon fill="none" stroke="black" points="311,-169 311,-215 437,-215 437,-169 311,-169"/>
<text text-anchor="middle" x="374" y="-199.8" font-family="Source Code Pro" font-size="14.00">Collection</text>
<polyline fill="none" stroke="black" points="311,-192 437,-192 "/>
<text text-anchor="middle" x="374" y="-176.8" font-family="Source Code Pro" font-size="14.00">metaknowledge</text>
</g>
<!-- Collection&#45;&gt;Hashable -->
<g id="edge4" class="edge"><title>Collection&#45;&gt;Hashable</title>
<path fill="none" stroke="black" d="M431.36,-215.082C458.704,-225.609 491.583,-238.267 520.062,-249.23"/>
<polygon fill="none" stroke="black" points="518.947,-252.552 529.537,-252.878 521.462,-246.019 518.947,-252.552"/>
</g>
<!-- Collection&#45;&gt;MutableSet -->
<g id="edge3" class="edge"><title>Collection&#45;&gt;MutableSet</title>
<path fill="none" stroke="black" d="M374,-215.407C374,-223.882 374,-233.703 374,-242.896"/>
<polygon fill="none" stroke="black" points="370.5,-242.904 374,-252.904 377.5,-242.904 370.5,-242.904"/>
</g>
<!-- CollectionWithIDs -->
<g id="node19" class="node"><title>CollectionWithIDs</title>
<polygon fill="none" stroke="black" points="160.5,-85 160.5,-131 319.5,-131 319.5,-85 160.5,-85"/>
<text text-anchor="middle" x="240" y="-115.8" font-family="Source Code Pro" font-size="14.00">CollectionWithIDs</text>
<polyline fill="none" stroke="black" points="160.5,-108 319.5,-108 "/>
<text text-anchor="middle" x="240" y="-92.8" font-family="Source Code Pro" font-size="14.00">metaknowledge</text>
</g>
<!-- CollectionWithIDs&#45;&gt;Collection -->
<g id="edge18" class="edge"><title>CollectionWithIDs&#45;&gt;Collection</title>
<path fill="none" stroke="black" d="M276.262,-131.19C292.499,-141.126 311.811,-152.944 328.964,-163.44"/>
<polygon fill="none" stroke="black" points="327.352,-166.558 337.709,-168.792 331.006,-160.587 327.352,-166.558"/>
</g>
<!-- RecordCollection -->
<g id="node20" class="node"><title>RecordCollection</title>
<polygon fill="none" stroke="black" points="-0.5,-1 -0.5,-47 150.5,-47 150.5,-1 -0.5,-1"/>
<text text-anchor="middle" x="75" y="-31.8" font-family="Source Code Pro" font-size="14.00">RecordCollection</text>
<polyline fill="none" stroke="black" points="-0.5,-24 150.5,-24 "/>
<text text-anchor="middle" x="75" y="-8.8" font-family="Source Code Pro" font-size="14.00">metaknowledge</text>
</g>
<!-- RecordCollection&#45;&gt;CollectionWithIDs -->
<g id="edge19" class="edge"><title>RecordCollection&#45;&gt;CollectionWithIDs</title>
<path fill="none" stroke="black" d="M119.651,-47.1904C140.278,-57.4414 164.936,-69.6953 186.545,-80.4345"/>
<polygon fill="none" stroke="black" points="185.086,-83.6179 195.599,-84.9341 188.202,-77.3493 185.086,-83.6179"/>
</g>
<!-- GrantCollection -->
<g id="node21" class="node"><title>GrantCollection</title>
<polygon fill="none" stroke="black" points="168.5,-1 168.5,-47 311.5,-47 311.5,-1 168.5,-1"/>
<text text-anchor="middle" x="240" y="-31.8" font-family="Source Code Pro" font-size="14.00">GrantCollection</text>
<polyline fill="none" stroke="black" points="168.5,-24 311.5,-24 "/>
<text text-anchor="middle" x="240" y="-8.8" font-family="Source Code Pro" font-size="14.00">metaknowledge</text>
</g>
<!-- GrantCollection&#45;&gt;CollectionWithIDs -->
<g id="edge20" class="edge"><title>GrantCollection&#45;&gt;CollectionWithIDs</title>
<path fill="none" stroke="black" d="M240,-47.4069C240,-55.8823 240,-65.7026 240,-74.896"/>
<polygon fill="none" stroke="black" points="236.5,-74.9041 240,-84.9041 243.5,-74.9042 236.5,-74.9041"/>
</g>
</g>
</svg>
